<?xml version="1.0" encoding="utf-8"?>
<svg id="_Слой_1" data-name="Слой 1" viewBox="0 0 708.4 268.15" xmlns="http://www.w3.org/2000/svg">
  <defs>
    <style>
      .cls-1 {
        fill: #a57f5b;
      }
    </style>
  </defs>
  <path class="cls-1" d="M0,186.52v-3.94H3.96c1.93,0,3.21-.27,3.84-.8,.63-.54,.94-1.57,.94-3.09v-43.77c0-1.53-.32-2.57-.96-3.12-.64-.55-1.91-.82-3.81-.82H0v-3.9H36c9.47,0,16.74,2.57,21.83,7.7,5.08,5.13,7.63,12.48,7.63,22.05s-2.45,16.41-7.34,21.72c-4.9,5.32-11.58,7.98-20.05,7.98H0Zm32.32-3.94c7.24,0,12.4-1.98,15.48-5.93,3.08-3.95,4.63-10.56,4.63-19.83s-1.68-15.86-5.04-19.85c-3.36-3.99-8.84-5.99-16.45-5.99h-5.43c-1.68,0-2.81,.27-3.38,.8-.57,.54-.86,1.58-.86,3.13v43.77c0,1.53,.28,2.56,.84,3.09,.56,.54,1.7,.8,3.4,.8h6.81Zm35.3,3.94v-3.86h4.13c1.9,0,3.18-.28,3.86-.84,.67-.56,1.01-1.61,1.01-3.13v-43.77c0-1.53-.34-2.57-1.01-3.12-.67-.55-1.96-.82-3.86-.82h-4.13v-3.9h29.93v3.9h-4.13c-1.87,0-3.13,.27-3.79,.8-.66,.54-.99,1.58-.99,3.13v43.77c0,1.55,.33,2.61,.99,3.15,.66,.55,1.92,.82,3.79,.82h4.13v3.86h-29.93Zm50.26-54.18v40.11c0,4.15,.74,6.93,2.21,8.34,1.47,1.41,4.29,2.14,8.44,2.19v3.54h-25.35l.04-3.54c4.18-.05,5.64-.77,7.13-2.15,1.49-1.38,2.24-4.17,2.24-8.38v-37.54c0-1.53-.32-2.57-.96-3.12-.64-.55-1.9-.82-3.77-.82h-4.27v-3.9h22.64c.71,0,1.35,.44,1.61,1.11l16.98,44.35,16.46-44.33c.25-.68,.89-1.13,1.61-1.13h21.07v3.9h-3.06c-1.84,0-3.08,.27-3.7,.8-.63,.54-.94,1.58-.94,3.13v43.77c0,1.55,.31,2.61,.94,3.15,.63,.55,1.86,.82,3.7,.82h3.06v3.86h-29.45v-3.86h5.39c1.9,0,3.17-.27,3.81-.82,.64-.55,.96-1.6,.96-3.15v-46.34l-20.12,54.18h-5.23l-21.43-54.18Zm72.03,54.18v-3.86h3.96c1.9,0,3.17-.27,3.81-.82,.64-.55,.96-1.6,.96-3.15v-43.77c0-1.53-.32-2.57-.96-3.12-.64-.55-1.91-.82-3.81-.82h-3.96v-3.9h52.6c.91,0,1.67,.72,1.72,1.64l1.05,19.38h-3.86c-.56-3.43-1.37-6.37-2.45-8.82-1.08-2.45-2.35-4.27-3.81-5.45-1.43-1.07-3.42-1.84-5.96-2.31-2.54-.47-6.12-.7-10.74-.7-3.45,0-5.58,.27-6.4,.8-.82,.54-1.23,1.63-1.23,3.3v18.85h1.27c4.65,0,7.96-.84,9.95-2.51,1.99-1.67,3.19-4.63,3.59-8.86h3.77v26.2h-3.77c-.41-4.26-1.59-7.21-3.55-8.84-1.96-1.63-5.29-2.45-9.99-2.45h-1.27v21.38c0,1.71,.44,2.85,1.31,3.4,.88,.55,3.21,.82,7.01,.82,4.21,0,7.61-.17,10.19-.5,2.59-.33,4.7-.88,6.33-1.63,1.96-.91,3.6-2.69,4.93-5.33,1.33-2.64,2.51-6.46,3.53-11.48h3.42l-1.26,20.92c-.06,.92-.81,1.63-1.72,1.63h-54.67Zm62.45,0v-3.54c3.77-.27,5.63-1.08,6.96-2.43,1.33-1.35,1.99-4.05,1.99-8.1v-38.87c-.61-.99-1.51-1.69-2.67-2.09-1.17-.4-2.29-.6-4.75-.6h-1.53v-3.82h18.26c.84,0,1.64,.39,2.16,1.06l34.21,43.83v-30.79c0-4.29-.73-7.11-2.19-8.46-1.46-1.35-3.61-2.06-7.81-2.11v-3.54h24.38v3.54c-3.8,.16-6.04,.94-7.42,2.35-1.37,1.41-2.06,4.15-2.06,8.22v46.82h-6.01l-39.24-49.96v34.4c0,4.18,.76,6.98,2.28,8.4,1.52,1.42,2.95,2.13,7.04,2.13v3.54h-23.61Zm127.01,0v-3.86h3.96c1.84,0,3.1-.29,3.77-.86,.67-.58,1.01-1.61,1.01-3.11v-43.77c0-1.5-.34-2.53-1.01-3.09-.67-.56-1.93-.84-3.77-.84h-3.96v-3.9h29.31v3.9h-4.09c-1.81,0-3.04,.28-3.68,.82-.64,.55-.96,1.59-.96,3.12v18.37h28.96v-18.37c0-1.5-.34-2.53-1.01-3.09-.67-.56-1.91-.84-3.73-.84h-4.09v-3.9h29.4v3.9h-4.05c-1.84,0-3.1,.28-3.77,.84-.67,.56-1.01,1.59-1.01,3.09v43.77c0,1.5,.34,2.54,1.01,3.11,.67,.58,1.93,.86,3.77,.86h4.05v3.86h-29.4v-3.86h4.09c1.81,0,3.05-.29,3.73-.86,.67-.58,1.01-1.61,1.01-3.11v-21.22h-28.96v21.22c0,1.53,.32,2.57,.96,3.13,.64,.56,1.87,.84,3.68,.84h4.09v3.86h-29.31Zm109.65-7.84c0,1.55,.31,2.61,.94,3.15,.63,.55,1.88,.82,3.75,.82h5.4v3.86h-32.4v-3.86h5.4c1.87,0,3.13-.27,3.77-.82,.64-.55,.96-1.6,.96-3.15v-44.09c0-1.77-.28-2.94-.86-3.52-.57-.58-2.26-.86-5.06-.86-4.03,0-6.76,1.44-8.86,4.32-2.1,2.88-3.7,8.01-4.78,15.37h-4.45l1.14-21.19c.05-.92,.8-1.64,1.72-1.64h54.36c.93,0,1.69,.75,1.72,1.68l.62,21.14h-3.76c-1.26-7.9-2.96-13.16-5.11-15.78-2.15-2.61-5.36-3.92-10.33-3.92-1.64,0-2.74,.3-3.31,.88-.57,.59-.86,1.76-.86,3.5v44.09Zm123.41,0c0,1.53,.32,2.57,.96,3.13,.64,.56,1.87,.84,3.68,.84h5.57v3.86h-32.14v-3.86h5.65c1.84,0,3.1-.29,3.77-.86,.67-.58,1.01-1.61,1.01-3.11v-16.13l-18.57-27.07c-1.37-2.04-2.53-3.3-3.46-3.78-.94-.48-2.24-.72-3.9-.72h-1.02v-3.9h28.69v3.9h-3.68c-1.64,0-2.82,.15-3.55,.44-.73,.29-1.1,.78-1.1,1.45,0,.29,.07,.62,.22,.98,.15,.36,.51,.98,1.1,1.87l14.71,21.29,12.2-19.4c.38-.59,.66-1.14,.83-1.65,.18-.51,.26-1.02,.26-1.53,0-1.15-.52-2.02-1.56-2.59-1.04-.58-2.59-.86-4.67-.86h-2.5v-3.9h22.68v3.9h-.68c-1.75,0-3.13,.28-4.12,.82-.99,.55-2.1,1.78-3.33,3.68l-17.07,26.63v16.58Zm26.96,7.84v-3.54c3.77-.27,5.98-1.08,7.3-2.43,1.33-1.35,1.99-4.05,1.99-8.1v-38.87c-.61-.99-1.51-1.63-2.67-2.03-1.17-.4-2.29-.58-4.75-.58h-.5v-3.9h17.57c.84,0,1.64,.39,2.16,1.06l33.86,43.83v-30.79c0-4.29-.73-7.11-2.19-8.46-1.46-1.35-3.95-2.06-8.16-2.11v-3.54h24.38v3.54c-3.8,.16-5.7,.94-7.07,2.35-1.37,1.41-2.06,4.15-2.06,8.22v46.82h-6.35l-38.9-49.96v34.4c0,4.18,.76,6.98,2.28,8.4,1.52,1.42,3.98,2.13,8.07,2.13v3.54h-24.99Zm-123.31,0v-3.86h3.96c1.9,0,3.17-.27,3.81-.82,.64-.55,.96-1.6,.96-3.15v-43.77c0-1.53-.32-2.57-.96-3.12-.64-.55-1.91-.82-3.81-.82h-3.96v-3.9h52.26c.91,0,1.67,.72,1.72,1.64l1.05,19.38h-3.86c-.56-3.43-1.37-6.37-2.45-8.82-1.08-2.45-2.35-4.27-3.81-5.45-1.43-1.07-3.42-1.84-5.96-2.31-2.54-.47-6.12-.7-10.74-.7-3.45,0-5.58,.27-6.4,.8-.82,.54-1.23,1.63-1.23,3.3v18.85h1.27c4.65,0,7.96-.84,9.95-2.51,1.99-1.67,3.19-4.63,3.59-8.86h3.77v26.2h-3.77c-.41-4.26-1.59-7.21-3.55-8.84-1.96-1.63-5.29-2.45-9.99-2.45h-1.27v21.38c0,1.71,.44,2.85,1.31,3.4,.88,.55,3.21,.82,7.01,.82,4.21,0,7.61-.17,10.19-.5,2.59-.33,4.7-.88,6.33-1.63,1.96-.91,3.6-2.69,4.93-5.33,1.33-2.64,2.51-6.46,3.53-11.48h3.42l-1.26,20.92c-.06,.92-.81,1.63-1.72,1.63h-54.33Zm-140.64-23.95c-1.02-2.19-2.51-4.06-4.43-5.57-1.62-1.24-3.94-2.31-6.2-3.18-2.31-.89-7.17-2.3-12.38-3.39-.61-.13-1.47-.31-2.57-.52-10.8-2.34-15.71-5.52-15.71-10.46,0-3.12,1.11-5.55,3.3-7.24,2.36-1.82,4.55-2.56,8.37-2.56,1.41,0,2.75,.11,4.04,.31,3.86,.59,7.22,2.02,10.03,4.27,3.79,3.05,6.64,7.66,8.46,13.7l.04,.12h4.12l-1.11-21.73h-3.51l-4.05,4.88c-2.41-1.85-5.17-3.27-8.19-4.22-1.83-.57-3.76-.96-5.77-1.19-1.37-.16-2.78-.26-4.22-.26-6.66,0-12.69,1.63-16.36,4.6-3.78,3.06-6.05,7.21-6.05,12.33,0,4.69,1.92,8.36,5.01,10.9,2.88,2.37,9.74,4.72,19.7,6.99,.54,.13,1.19,.27,1.93,.43,.7,.16,1.48,.34,2.35,.53,5.27,1.19,8.55,2.37,10.39,3.51,1.28,.84,2.28,1.92,2.98,3.21,.7,1.29,1.05,2.8,1.05,4.48,0,3.62-1.37,6.49-4.09,8.52-2.81,2.1-6.02,3.08-10.85,3.08-.63,0-1.23-.03-1.84-.07-5.35-.33-9.85-2.05-13.38-5.15-3.95-3.47-6.68-8.62-8.13-15.3l-.03-.14h-4.32l.48,24.05v.17h3.33l4.38-5.63c2.33,1.91,5.2,3.41,8.55,4.48,2.89,.92,5.95,1.43,9.1,1.57,.57,.03,1.14,.06,1.72,.06,7.94,0,14.92-1.7,19.02-4.8,4.23-3.19,6.37-7.76,6.37-13.58,0-2.61-.52-5.04-1.54-7.23Zm-225.37,94.46v-16.93c0-1.68,.64-3.24,1.92-4.68l4.02-4.65h-2.01c-3.04,0-4.56-1.34-4.56-4.02,0-1.97,.64-3.66,1.92-5.09h.82c.36,1.47,1.35,2.2,2.98,2.2h8.76c4.82,0,7.94,.7,9.38,2.1,1.43,1.4,2.15,4.45,2.15,9.14v21.93h-25.38Zm8.07-26.26l-3.86,5.59c-.92,1.34-1.38,2.96-1.38,4.87v9.39h19.82v-8.48c0-4.36-.39-7.34-1.18-8.95-.78-1.61-2.56-2.42-5.32-2.42h-8.07Zm28.8,11.25l-.88-1.01c2.22-1.65,3.33-3.96,3.33-6.91,0-2.11-1.56-3.24-4.68-3.36-3.48-.13-5.21-1.6-5.21-4.43,0-1.47,.49-3.11,1.48-4.93h.85c.21,1.42,1.16,2.21,2.86,2.36l2.86,.19c2.81,.21,4.21,2.15,4.21,5.81v2.36c0,4.96-1.6,8.27-4.81,9.93Zm31.07,15.01h-16.65c-.02-1.65-.34-4.09-.94-7.32-.88-4.65-1.32-8.12-1.32-10.43,0-2.7,.54-5.47,1.63-8.29-1.61-.29-2.7-.76-3.25-1.4-.55-.64-.83-1.64-.83-3,0-1.68,.44-3.41,1.32-5.21h.85c.15,1.53,1.28,2.35,3.39,2.45,2.49,.06,3.74,1.4,3.74,4.02,0,.92-.14,1.84-.41,2.76-.92,.29-2.02,.44-3.3,.44-.73,2.35-1.1,4.39-1.1,6.13,0,4.04,1.07,8.52,3.2,13.44h13c1.78-3.77,2.67-8.22,2.67-13.35,0-4.61-1.73-6.91-5.18-6.91-2.89,0-4.96,2.03-6.22,6.09l-1.01-.25c1.76-8.48,4.61-12.72,8.54-12.72s5.87,4.59,5.87,13.76c0,5.7-1.34,12.29-4.02,19.79Zm15.39-15.01l-.88-1.01c2.22-1.65,3.33-3.96,3.33-6.91,0-2.11-1.56-3.24-4.68-3.36-3.48-.13-5.21-1.6-5.21-4.43,0-1.47,.49-3.11,1.48-4.93h.85c.21,1.42,1.16,2.21,2.86,2.36l2.86,.19c2.81,.21,4.21,2.15,4.21,5.81v2.36c0,4.96-1.6,8.27-4.81,9.93Zm33.39,15.01h-17.56c-.61-3.22-1.27-6.11-1.98-8.67-1.01-3.66-1.51-6.65-1.51-8.95,0-3.12,.43-5.94,1.29-8.45-2.62-.77-3.93-2.2-3.93-4.27s.52-3.74,1.57-5.31h.85c.21,.78,.53,1.32,.97,1.63s1.36,.62,2.76,.91c2.09,.44,3.14,2.06,3.14,4.87,0,.71-.06,1.28-.19,1.7-1.34,.44-2.58,.66-3.71,.66-.48,2.16-.72,4.57-.72,7.22,0,3.41,1.21,7.5,3.64,12.25l.97-.03c2.85-5.23,5.36-11.82,7.54-19.76-2.6-.96-3.9-2.49-3.9-4.59,0-1.8,.53-3.42,1.6-4.87h.85c.25,1.17,.84,1.87,1.76,2.1l1.98,.44c2.11,.48,3.17,1.93,3.17,4.33,0,.86-.09,1.6-.28,2.23-.94,.29-2.12,.44-3.52,.44-1.57,7.18-3.84,13.75-6.82,19.69h9.99c.96-3.18,3.62-7.83,7.98-13.95,1.11-1.53,1.67-2.83,1.67-3.9s-.57-1.82-1.7-2.2l-.41-.13c-2.09-.71-3.14-1.95-3.14-3.71,0-1.99,.61-3.78,1.82-5.37h.82c.15,1.01,.68,1.68,1.6,2.01l1.76,.6c1.99,.69,2.98,2.13,2.98,4.3,0,1.88-.97,4.34-2.92,7.37-1.95,3.03-3.67,6.35-5.15,9.96-1.49,3.61-2.59,7.42-3.3,11.42Zm25.41,0h-10.33l1.48-6.41h11.9c4.98,0,7.48-3.13,7.48-9.39,.02-4.17-.56-6.95-1.73-8.36-1.17-1.4-2.86-2.1-5.06-2.1h-8.64c-2.97,0-4.46-1.32-4.46-3.96,0-1.95,.64-3.66,1.92-5.15h.82c.33,1.47,1.38,2.2,3.14,2.2h6.47c6.64,0,9.96,5.43,9.96,16.3,0,4.13-.35,7.4-1.04,9.83-.69,2.43-2.03,4.21-4.02,5.34-1.99,1.13-4.62,1.7-7.88,1.7Zm42.25,.53l-.66-.22v-15.2c0-3.54-.11-5.92-.31-7.13-.21-1.21-.8-2.23-1.78-3.03-.97-.81-2.46-1.21-4.44-1.21h-7.04l-1.32,2.83c-1.3,2.83-1.95,5.2-1.95,7.13,0,.92,.14,2.69,.41,5.31,.8,3.98,1.16,6.41,1.1,7.29l-.19,3.71h-9.14l1.32-6.41h3.96l-.19-6.16c-.15-4.23,.63-7.77,2.32-10.62l1.82-3.08h-1.22c-3.2,0-4.81-1.32-4.81-3.96,0-1.97,.65-3.69,1.95-5.15h.85c.36,1.47,1.4,2.2,3.14,2.2h7c4.84,0,7.96,.7,9.38,2.09,1.41,1.39,2.12,4.44,2.12,9.16v18.56c0,1.82-.77,3.12-2.32,3.9Zm32.13,10.59l-.6-.25v-27.83c.04-1.49,.62-3.24,1.73-5.25,.44-.8,.66-1.51,.66-2.14,0-1.07-1.24-1.66-3.71-1.79-4.15-.19-6.22-1.69-6.22-4.49,0-1.95,.57-3.62,1.7-5.03h.85c.25,1.51,1.2,2.31,2.86,2.42l2.54,.13c3.2,.19,4.81,1.91,4.81,5.15,0,.69-.42,2.27-1.26,4.73-.84,2.46-1.18,5.15-1.04,8.06l1.01,18c.25,4.59-.86,7.35-3.33,8.29Zm16.96-26.13l-.88-1.01c2.22-1.65,3.33-3.96,3.33-6.91,0-2.11-1.56-3.24-4.68-3.36-3.48-.13-5.21-1.6-5.21-4.43,0-1.47,.49-3.11,1.48-4.93h.85c.21,1.42,1.16,2.21,2.86,2.36l2.86,.19c2.81,.21,4.21,2.15,4.21,5.81v2.36c0,4.96-1.6,8.27-4.81,9.93Zm17.15,0l-.88-1.01c2.22-1.65,3.33-3.96,3.33-6.91,0-2.11-1.56-3.24-4.68-3.36-3.48-.13-5.21-1.6-5.21-4.43,0-1.47,.49-3.11,1.48-4.93h.85c.21,1.42,1.16,2.21,2.86,2.36l2.86,.19c2.81,.21,4.21,2.15,4.21,5.81v2.36c0,4.96-1.6,8.27-4.81,9.93Zm31.07,15.01h-16.65c-.02-1.65-.33-4.09-.94-7.32-.88-4.65-1.32-8.12-1.32-10.43,0-2.7,.54-5.47,1.63-8.29-1.61-.29-2.7-.76-3.25-1.4-.56-.64-.83-1.64-.83-3,0-1.68,.44-3.41,1.32-5.21h.85c.15,1.53,1.28,2.35,3.39,2.45,2.49,.06,3.74,1.4,3.74,4.02,0,.92-.14,1.84-.41,2.76-.92,.29-2.02,.44-3.3,.44-.73,2.35-1.1,4.39-1.1,6.13,0,4.04,1.07,8.52,3.2,13.44h13c1.78-3.77,2.67-8.22,2.67-13.35,0-4.61-1.73-6.91-5.18-6.91-2.89,0-4.96,2.03-6.22,6.09l-1.01-.25c1.76-8.48,4.61-12.72,8.54-12.72s5.87,4.59,5.87,13.76c0,5.7-1.34,12.29-4.02,19.79Zm32.92,0h-17.56c-.61-3.22-1.27-6.11-1.98-8.67-1.01-3.66-1.51-6.65-1.51-8.95,0-3.12,.43-5.94,1.29-8.45-2.62-.77-3.93-2.2-3.93-4.27s.52-3.74,1.57-5.31h.85c.21,.78,.53,1.32,.97,1.63s1.36,.62,2.76,.91c2.09,.44,3.14,2.06,3.14,4.87,0,.71-.06,1.28-.19,1.7-1.34,.44-2.58,.66-3.71,.66-.48,2.16-.72,4.57-.72,7.22,0,3.41,1.21,7.5,3.64,12.25l.97-.03c2.85-5.23,5.36-11.82,7.54-19.76-2.6-.96-3.9-2.49-3.9-4.59,0-1.8,.53-3.42,1.6-4.87h.85c.25,1.17,.84,1.87,1.76,2.1l1.98,.44c2.11,.48,3.17,1.93,3.17,4.33,0,.86-.09,1.6-.28,2.23-.94,.29-2.12,.44-3.52,.44-1.57,7.18-3.84,13.75-6.82,19.69h9.99c.96-3.18,3.62-7.83,7.98-13.95,1.11-1.53,1.67-2.83,1.67-3.9s-.57-1.82-1.7-2.2l-.41-.13c-2.09-.71-3.14-1.95-3.14-3.71,0-1.99,.61-3.78,1.82-5.37h.82c.15,1.01,.68,1.68,1.6,2.01l1.76,.6c1.99,.69,2.98,2.13,2.98,4.3,0,1.88-.97,4.34-2.92,7.37-1.95,3.03-3.67,6.35-5.15,9.96-1.49,3.61-2.59,7.42-3.3,11.42Zm30,0h-15.49l1.32-6.41h10.52l-.25-5.25c-.08-1.47-.01-3.73,.22-6.78,.19-2.37,.28-4.14,.28-5.31,0-1.59-.87-2.44-2.61-2.54-4.63-.27-6.94-1.72-6.94-4.33,0-2.05,.64-3.73,1.92-5.03h.85c.25,1.38,1.2,2.14,2.86,2.26l2.54,.22c2.85,.25,4.27,1.7,4.27,4.33,0,1.26-.19,3.14-.57,5.65-.38,2.49-.57,4.38-.57,5.65,0,2.01,.14,3.63,.41,4.87,1.03,4.59,1.54,7.46,1.54,8.61,0,1.82-.11,3.17-.31,4.05Zm30.8-5.37l-1.07,5.37h-15.67l1.51-6.41h13.29c.61-2.28,.91-5.05,.91-8.29,.02-3.22-.63-5.83-1.96-7.82-1.33-1.99-3.23-2.97-5.7-2.95-3.31,0-6.37,2.1-9.19,6.3-2.82,4.2-4.25,10.59-4.29,19.18h-2.11c-.08-1.07-.13-1.98-.13-2.73,0-8.71,2.43-15.74,7.29-21.08,0-.8-.21-1.37-.63-1.71-.42-.34-1.39-.69-2.92-1.02-2.64-.57-3.96-1.97-3.96-4.21,0-1.72,.44-3.35,1.32-4.9h.85c.38,1.28,1.18,2.01,2.42,2.2l1.95,.28c1.76,.25,2.64,1.14,2.64,2.67,0,.29-.04,.73-.13,1.32-.11,.61-.16,1.06-.16,1.35,0,.86,.32,1.5,.97,1.92,3.48-1.95,5.37-4.5,5.68-7.66,3.37,.57,5.92,2.46,7.65,5.69,1.73,3.23,2.59,7.39,2.59,12.5,0,2.85-.39,6.19-1.16,10.02Zm10.48-9.64l-.88-1.01c2.22-1.65,3.33-3.96,3.33-6.91,0-2.11-1.56-3.24-4.68-3.36-3.48-.13-5.22-1.6-5.22-4.43,0-1.47,.49-3.11,1.48-4.93h.85c.21,1.42,1.16,2.21,2.86,2.36l2.86,.19c2.81,.21,4.21,2.15,4.21,5.81v2.36c0,4.96-1.6,8.27-4.81,9.93Zm22.14,15.8l-.5-.72c.54-.8,.82-1.87,.82-3.24,0-1.11-.04-2.8-.13-5.06-.11-2.26-.16-3.95-.16-5.06,0-5.8,1.82-10.12,5.47-12.97h-14.67c-3.25,0-4.87-1.32-4.87-3.96,0-2.05,.64-3.77,1.92-5.15h.82c.33,1.47,1.38,2.2,3.14,2.2h13c1.47,0,2.48,.27,3.03,.8,.55,.53,.83,1.51,.83,2.94,0,1.84-.44,3.05-1.32,3.63-.88,.58-1.68,1.47-2.4,2.69-.72,1.21-1.08,2.68-1.08,4.4,0,1.47,.12,3.66,.35,6.6,.23,2.95,.34,5.16,.34,6.63,0,3.69-1.53,5.78-4.59,6.28Z" style="fill: rgb(33, 150, 243);"/>
  <g>
    <polygon class="cls-1" points="361.67 49.16 346.72 49.16 338.12 59.07 354.2 76.55 370.27 59.07 361.67 49.16" style="fill: rgb(33, 150, 243);"/>
    <polygon class="cls-1" points="364.4 0 343.99 0 332.26 13.53 354.2 37.39 376.14 13.53 364.4 0" style="fill: rgb(33, 150, 243);"/>
    <polygon class="cls-1" points="286.54 64.17 273.34 71.18 270.4 83.97 292.8 91.86 298.79 68.88 286.54 64.17" style="fill: rgb(33, 150, 243);"/>
    <polygon class="cls-1" points="265.87 19.48 247.85 29.06 243.84 46.51 274.41 57.28 282.59 25.91 265.87 19.48" style="fill: rgb(33, 150, 243);"/>
    <polygon class="cls-1" points="409.61 68.88 415.6 91.86 437.99 83.97 435.05 71.18 421.85 64.17 409.61 68.88" style="fill: rgb(33, 150, 243);"/>
    <polygon class="cls-1" points="425.81 25.91 433.98 57.28 464.56 46.51 460.54 29.06 442.52 19.48 425.81 25.91" style="fill: rgb(33, 150, 243);"/>
    <polygon class="cls-1" points="323.19 52.05 308.68 55.67 302.73 67.36 322.56 80.43 333.93 59.59 323.19 52.05" style="fill: rgb(33, 150, 243);"/>
    <polygon class="cls-1" points="313.94 3.69 294.14 8.63 286.02 24.59 313.08 42.43 328.6 13.98 313.94 3.69" style="fill: rgb(33, 150, 243);"/>
    <polygon class="cls-1" points="374.47 59.59 385.84 80.43 405.66 67.36 399.71 55.67 385.21 52.05 374.47 59.59" style="fill: rgb(33, 150, 243);"/>
    <polygon class="cls-1" points="379.79 13.98 395.31 42.43 422.37 24.59 414.26 8.63 394.46 3.69 379.79 13.98" style="fill: rgb(33, 150, 243);"/>
  </g>
</svg>